<?xml version="1.0" encoding="UTF-8" standalone="no"?>
<svg width="1197px" height="441px" viewBox="0 0 1197 441" version="1.1" xmlns="http://www.w3.org/2000/svg" xmlns:xlink="http://www.w3.org/1999/xlink" xmlns:sketch="http://www.bohemiancoding.com/sketch/ns">
    <!-- Generator: Sketch 3.1 (8751) - http://www.bohemiancoding.com/sketch -->
    <title>some-icons</title>
    <desc>Created with Sketch.</desc>
    <defs></defs>
    <g id="Page-1" stroke="none" stroke-width="1" fill="none" fill-rule="evenodd" sketch:type="MSPage">
        <g id="some-icons" sketch:type="MSLayerGroup">
            <g id="Layer_1" fill="#FFFFFF" sketch:type="MSShapeGroup">
                <path d="M101.4,2.2 C45.3,2.2 0,47.5 0,103 C0,159.1 45.3,204.4 101.4,204.4 C157.5,204.4 202.8,159.1 202.8,103 C202.2,47.5 156.9,2.2 101.4,2.2 L101.4,2.2 Z M128.2,103 L111,103 L111,165.5 L84.8,165.5 L84.8,103 L72.7,103 L72.7,80.7 L84.8,80.7 L84.8,66.7 C84.8,56.5 89.9,40.5 111,40.5 L130.1,40.5 L130.1,62.2 L116.1,62.2 C113.6,62.2 110.4,63.5 110.4,67.9 L110.4,80.7 L130.2,80.7 L128.2,103 L128.2,103 Z" id="Shape"></path>
                <path d="M364.2,2.2 C308.1,2.2 262.1,48.1 262.1,104.3 C262.1,160.5 308,206.4 364.2,206.4 C420.4,206.4 466.3,160.5 466.3,104.3 C466.3,47.5 421,2.2 364.2,2.2 L364.2,2.2 Z M415.9,83.2 L415.9,86.4 C415.9,120.2 389.7,159.8 342.5,159.8 C327.8,159.8 314.4,155.3 303,148.3 C304.9,148.3 306.8,148.9 309.4,148.9 C321.5,148.9 332.4,145.1 341.3,138.1 C329.8,138.1 320.3,130.4 317.1,120.2 C318.4,120.2 320.3,120.8 322.2,120.8 C324.8,120.8 326.7,120.8 329.2,120.2 C317.7,117.6 308.8,107.4 308.8,94.7 C308.8,94.7 308.8,94.7 308.8,94.1 C312,96 316.5,97.3 320.3,97.3 C313.3,92.8 308.8,84.5 308.8,75.6 C308.8,71.1 310.1,66.7 312,62.8 C324.8,78.1 343.9,88.3 364.9,89.6 C364.3,87.7 364.3,85.8 364.3,83.9 C364.3,69.9 375.8,58.4 389.8,58.4 C397.5,58.4 403.8,61.6 408.3,66.7 C414,65.4 419.8,63.5 424.9,60.3 C423,66 419.2,71.1 413.4,74.3 C418.5,73.7 423.6,72.4 428.1,70.5 C425.5,74.9 421,80 415.9,83.2 L415.9,83.2 Z" id="Shape"></path>
                <g id="Group" transform="translate(522.000000, 0.000000)">
                    <path d="M143.9,80 L143.9,64.1 L143.9,61.5 L141.4,61.5 L124.8,61.5 L124.8,80 L143.9,80 Z" id="Shape"></path>
                    <path d="M101.2,123.4 C112,123.4 121,114.5 121,103.6 C121,99.1 119.7,95.3 117.2,92.1 C113.4,87 107.6,83.8 101.3,83.8 C95,83.8 89.2,87 85.4,92.1 C82.8,95.3 81.6,99.1 81.6,103.6 C81.4,115.1 90.4,123.4 101.2,123.4 L101.2,123.4 Z" id="Shape"></path>
                    <path d="M101.8,0.3 C45,0.3 -0.3,46.2 -0.3,102.4 C-0.3,159.2 45.6,204.5 101.8,204.5 C158.6,204.5 203.9,158.6 203.9,102.4 C203.9,46.2 158,0.3 101.8,0.3 L101.8,0.3 Z M156.7,92.8 L156.7,138.1 C156.7,150.2 147.1,159.8 135,159.8 L66.7,159.8 C54.6,159.8 45,150.2 45,138.1 L45,92.8 L45,69.8 C45,57.7 54.6,48.1 66.7,48.1 L135,48.1 C147.1,48.1 156.7,57.7 156.7,69.8 L156.7,92.8 L156.7,92.8 Z" id="Shape"></path>
                    <path d="M131.2,104.3 C131.2,120.9 117.8,134.9 100.6,134.9 C84,134.9 70,121.5 70,104.3 C70,100.5 70.6,96.6 72.6,92.8 L56,92.8 L56,138.1 C56,143.8 60.5,148.9 66.8,148.9 L135,148.9 C140.7,148.9 145.8,144.4 145.8,138.1 L145.8,92.8 L129.2,92.8 C130.5,96 131.2,99.8 131.2,104.3 L131.2,104.3 Z" id="Shape"></path>
                </g>
                <path d="M859.2,2.2 C803.1,2.2 757.8,47.5 757.8,103.6 C757.8,159.7 803.1,205 859.2,205 C915.3,205 960.6,159.7 960.6,103.6 C960,47.5 914.7,2.2 859.2,2.2 L859.2,2.2 Z M917.3,78.8 C910.3,117.1 872.6,149 861.2,156.6 C849.8,164.2 839.5,153.4 835.7,145.8 C831.2,136.9 818.5,88.4 815.3,84.6 C812.1,80.8 801.9,88.4 801.9,88.4 L796.8,82 C796.8,82 817.2,57.1 833.2,54.6 C849.8,51.4 849.8,80.1 853.6,96.1 C857.4,111.4 860,120.3 863.2,120.3 C866.4,120.3 872.8,112 879.8,98.6 C886.8,85.2 879.8,73.7 865.8,82 C872,48.8 924.3,40.5 917.3,78.8 L917.3,78.8 Z" id="Shape"></path>
                <path d="M1196.28596,102.714185 C1196.28596,46.874833 1150.98233,1.57120752 1095.14298,1.57120752 C1039.30363,1.57120752 994,46.874833 994,102.714185 C994,147.359328 1022.97325,185.287944 1063.14071,198.720996 C1068.27687,199.642872 1070.12063,196.482154 1070.12063,193.848222 C1070.12063,191.477684 1069.98893,183.444192 1069.98893,175.015611 C1069.98893,175.015611 1041.80586,181.073654 1035.87951,163.031221 C1035.87951,163.031221 1031.27013,151.310225 1024.6853,148.281204 C1024.6853,148.281204 1015.46654,141.959768 1025.34379,142.091464 C1025.34379,142.091464 1035.35273,142.881644 1040.88398,152.495495 C1049.70766,168.035692 1064.45767,163.558008 1070.25232,160.924076 C1071.1742,154.339247 1073.80813,149.993259 1076.70546,147.359328 C1054.18534,144.857093 1030.61165,136.165118 1030.61165,97.4463218 C1030.61165,86.3838086 1034.56255,77.2967442 1041.01568,70.3168252 C1039.96211,67.6828935 1036.538,57.4105598 1041.93756,43.4507217 C1050.49784,40.81679 1069.85723,53.854752 1069.85723,53.854752 C1077.89073,51.61591 1086.5827,50.4306408 1095.14298,50.4306408 C1103.70326,50.4306408 1112.39523,51.61591 1120.42872,53.854752 C1120.42872,53.854752 1139.78812,40.81679 1148.2167,43.4507217 C1153.74796,57.4105598 1150.32385,67.6828935 1149.27027,70.3168252 C1155.72341,77.2967442 1159.6743,86.3838086 1159.6743,97.4463218 C1159.6743,136.296815 1135.96892,144.857093 1113.4488,147.359328 C1117.13631,150.520046 1120.29703,156.578089 1120.29703,166.060243 L1120.29703,193.848222 C1120.29703,196.482154 1122.00908,199.642872 1127.14525,198.720996 C1167.31271,185.287944 1196.28596,147.359328 1196.28596,102.714185 L1196.28596,102.714185 Z" id="-2"></path>
            </g>
            <g id="Layer_1_copy" transform="translate(0.000000, 235.000000)" fill="#296A35" sketch:type="MSShapeGroup">
                <path d="M101.4,1.9 C45.3,1.9 0,47.2 0,102.7 C0,158.8 45.3,204.1 101.4,204.1 C157.5,204.1 202.8,158.8 202.8,102.7 C202.2,47.2 156.9,1.9 101.4,1.9 L101.4,1.9 Z M128.2,102.7 L111,102.7 L111,165.2 L84.8,165.2 L84.8,102.7 L72.7,102.7 L72.7,80.4 L84.8,80.4 L84.8,66.4 C84.8,56.2 89.9,40.2 111,40.2 L130.1,40.2 L130.1,61.9 L116.1,61.9 C113.6,61.9 110.4,63.2 110.4,67.6 L110.4,80.4 L130.2,80.4 L128.2,102.7 L128.2,102.7 Z" id="Shape"></path>
                <path d="M364.2,1.9 C308.1,1.9 262.1,47.8 262.1,104 C262.1,160.2 308.1,206 364.2,206 C420.3,206 466.3,160.1 466.3,103.9 C466.3,47.2 421,1.9 364.2,1.9 L364.2,1.9 Z M415.9,82.9 L415.9,86.1 C415.9,119.9 389.7,159.5 342.5,159.5 C327.8,159.5 314.4,155 303,148 C304.9,148 306.8,148.6 309.4,148.6 C321.5,148.6 332.4,144.8 341.3,137.8 C329.8,137.8 320.3,130.1 317.1,119.9 C318.4,119.9 320.3,120.5 322.2,120.5 C324.8,120.5 326.7,120.5 329.2,119.9 C317.7,117.3 308.8,107.1 308.8,94.4 C308.8,94.4 308.8,94.4 308.8,93.8 C312,95.7 316.5,97 320.3,97 C313.3,92.5 308.8,84.2 308.8,75.3 C308.8,70.8 310.1,66.4 312,62.5 C324.8,77.8 343.9,88 364.9,89.3 C364.3,87.4 364.3,85.5 364.3,83.6 C364.3,69.6 375.8,58.1 389.8,58.1 C397.5,58.1 403.8,61.3 408.3,66.4 C414,65.1 419.8,63.2 424.9,60 C423,65.7 419.2,70.8 413.4,74 C418.5,73.4 423.6,72.1 428.1,70.2 C425.5,74.6 421,79.7 415.9,82.9 L415.9,82.9 Z" id="Shape"></path>
                <g id="Group" transform="translate(522.000000, 0.000000)">
                    <path d="M143.9,79.7 L143.9,63.8 L143.9,61.2 L141.4,61.2 L124.8,61.2 L124.8,79.7 L143.9,79.7 Z" id="Shape"></path>
                    <path d="M101.2,123.1 C112,123.1 121,114.2 121,103.3 C121,98.8 119.7,95 117.2,91.8 C113.4,86.7 107.6,83.5 101.3,83.5 C95,83.5 89.2,86.7 85.4,91.8 C82.8,95 81.6,98.8 81.6,103.3 C81.4,114.8 90.4,123.1 101.2,123.1 L101.2,123.1 Z" id="Shape"></path>
                    <path d="M101.8,0 C45,0 -0.3,45.9 -0.3,102.1 C-0.3,158.9 45.6,204.2 101.8,204.2 C158.6,204.2 203.9,158.3 203.9,102.1 C203.9,45.9 158,0 101.8,0 L101.8,0 Z M156.7,92.5 L156.7,137.8 C156.7,149.9 147.1,159.5 135,159.5 L66.7,159.5 C54.6,159.5 45,149.9 45,137.8 L45,92.5 L45,69.5 C45,57.4 54.6,47.8 66.7,47.8 L135,47.8 C147.1,47.8 156.7,57.4 156.7,69.5 L156.7,92.5 L156.7,92.5 Z" id="Shape"></path>
                    <path d="M131.2,103.9 C131.2,120.5 117.8,134.5 100.6,134.5 C84,134.5 70,121.1 70,103.9 C70,100.1 70.6,96.2 72.6,92.4 L56,92.4 L56,137.7 C56,143.4 60.5,148.5 66.8,148.5 L135,148.5 C140.7,148.5 145.8,144 145.8,137.7 L145.8,92.4 L129.2,92.4 C130.5,95.6 131.2,99.5 131.2,103.9 L131.2,103.9 Z" id="Shape"></path>
                </g>
                <path d="M859.2,1.9 C803.1,1.9 757.8,47.2 757.8,103.3 C757.8,159.4 803.1,204.7 859.2,204.7 C915.3,204.7 960.6,159.4 960.6,103.3 C960,47.2 914.7,1.9 859.2,1.9 L859.2,1.9 Z M917.3,78.4 C910.3,116.7 872.6,148.6 861.2,156.2 C849.8,163.8 839.5,153 835.7,145.4 C831.2,136.5 818.5,88 815.3,84.2 C812.1,80.4 801.9,88 801.9,88 L796.8,81.6 C796.8,81.6 817.2,56.7 833.2,54.2 C849.8,51 849.8,79.7 853.6,95.7 C857.4,111 860,119.9 863.2,119.9 C866.4,119.9 872.8,111.6 879.8,98.2 C886.8,84.8 879.8,73.3 865.8,81.6 C872,48.4 924.3,40.2 917.3,78.4 L917.3,78.4 Z" id="Shape"></path>
                <path d="M1196.28596,103.714185 C1196.28596,47.874833 1150.98233,2.57120752 1095.14298,2.57120752 C1039.30363,2.57120752 994,47.874833 994,103.714185 C994,148.359328 1022.97325,186.287944 1063.14071,199.720996 C1068.27687,200.642872 1070.12063,197.482154 1070.12063,194.848222 C1070.12063,192.477684 1069.98893,184.444192 1069.98893,176.015611 C1069.98893,176.015611 1041.80586,182.073654 1035.87951,164.031221 C1035.87951,164.031221 1031.27013,152.310225 1024.6853,149.281204 C1024.6853,149.281204 1015.46654,142.959768 1025.34379,143.091464 C1025.34379,143.091464 1035.35273,143.881644 1040.88398,153.495495 C1049.70766,169.035692 1064.45767,164.558008 1070.25232,161.924076 C1071.1742,155.339247 1073.80813,150.993259 1076.70546,148.359328 C1054.18534,145.857093 1030.61165,137.165118 1030.61165,98.4463218 C1030.61165,87.3838086 1034.56255,78.2967442 1041.01568,71.3168252 C1039.96211,68.6828935 1036.538,58.4105598 1041.93756,44.4507217 C1050.49784,41.81679 1069.85723,54.854752 1069.85723,54.854752 C1077.89073,52.61591 1086.5827,51.4306408 1095.14298,51.4306408 C1103.70326,51.4306408 1112.39523,52.61591 1120.42872,54.854752 C1120.42872,54.854752 1139.78812,41.81679 1148.2167,44.4507217 C1153.74796,58.4105598 1150.32385,68.6828935 1149.27027,71.3168252 C1155.72341,78.2967442 1159.6743,87.3838086 1159.6743,98.4463218 C1159.6743,137.296815 1135.96892,145.857093 1113.4488,148.359328 C1117.13631,151.520046 1120.29703,157.578089 1120.29703,167.060243 L1120.29703,194.848222 C1120.29703,197.482154 1122.00908,200.642872 1127.14525,199.720996 C1167.31271,186.287944 1196.28596,148.359328 1196.28596,103.714185 L1196.28596,103.714185 Z" id=""></path>
            </g>
        </g>
    </g>
</svg>